<?xml version="1.0" encoding="UTF-8" standalone="no"?>
<!DOCTYPE svg PUBLIC "-//W3C//DTD SVG 1.1//EN" "http://www.w3.org/Graphics/SVG/1.1/DTD/svg11.dtd">
<svg width="100%" height="100%" viewBox="0 0 1001 210" version="1.1" xmlns="http://www.w3.org/2000/svg" xmlns:xlink="http://www.w3.org/1999/xlink" xml:space="preserve" xmlns:serif="http://www.serif.com/" style="fill-rule:evenodd;clip-rule:evenodd;stroke-linejoin:round;stroke-miterlimit:2;">
    <g transform="matrix(1,0,0,1,-47,-1570)">
        <g transform="matrix(0.427944,0,0,0.185875,0,1541.23)">
            <g id="logo" transform="matrix(2.48695,0,0,5.72576,-1796.66,-3402.55)">
                <g transform="matrix(1,0,0,1,128.458,-95.3773)">
                    <path d="M716.447,831.37L716.447,830.98C716.447,826.432 715.505,822.598 713.621,819.479C711.736,816.36 709.235,813.696 706.116,811.486C702.997,809.277 699.52,807.458 695.686,806.028C691.853,804.599 687.986,803.299 684.088,802.129C680.709,801.09 677.46,800.05 674.341,799.01C671.222,797.971 668.46,796.801 666.056,795.501C663.651,794.202 661.735,792.675 660.305,790.92C658.875,789.166 658.161,787.119 658.161,784.78L658.161,784.39C658.161,780.231 659.915,776.755 663.424,773.961C666.933,771.167 671.676,769.77 677.655,769.77C682.593,769.77 687.629,770.647 692.762,772.401C697.896,774.156 702.802,776.527 707.48,779.517L714.303,768.21C709.105,764.831 703.321,762.134 696.953,760.12C690.585,758.106 684.282,757.099 678.044,757.099C673.106,757.099 668.525,757.781 664.301,759.145C660.078,760.51 656.439,762.459 653.385,764.994C650.331,767.528 647.959,770.582 646.269,774.156C644.58,777.73 643.735,781.661 643.735,785.949L643.735,786.339C643.735,791.018 644.742,794.917 646.757,798.036C648.771,801.155 651.37,803.754 654.554,805.833C657.738,807.913 661.312,809.635 665.276,810.999C669.24,812.364 673.171,813.631 677.07,814.8C680.319,815.71 683.47,816.685 686.524,817.725C689.578,818.764 692.275,819.966 694.614,821.331C696.953,822.695 698.805,824.287 700.17,826.107C701.535,827.926 702.217,830.071 702.217,832.54L702.217,832.93C702.217,837.868 700.267,841.767 696.369,844.626C692.47,847.485 687.466,848.915 681.358,848.915C675.38,848.915 669.435,847.81 663.521,845.601C657.608,843.391 651.923,840.207 646.464,836.049L638.862,846.77C644.58,851.319 651.143,854.925 658.551,857.59C665.958,860.254 673.301,861.586 680.579,861.586C685.647,861.586 690.358,860.903 694.712,859.539C699.065,858.174 702.834,856.192 706.018,853.593C709.202,850.994 711.736,847.843 713.621,844.139C715.505,840.435 716.447,836.179 716.447,831.37Z" style="fill:rgb(240,240,240);fill-rule:nonzero;"/>
                    <path d="M753.486,814.8L833.216,814.8C833.346,813.891 833.411,813.046 833.411,812.266L833.411,810.122C833.411,802.714 832.371,795.761 830.292,789.263C828.212,782.765 825.158,777.112 821.13,772.304C817.101,767.495 812.162,763.694 806.314,760.9C800.466,758.106 793.838,756.709 786.43,756.709C779.413,756.709 772.947,758.073 767.034,760.802C761.121,763.532 756.02,767.268 751.731,772.011C747.443,776.755 744.096,782.343 741.692,788.776C739.288,795.209 738.086,802.064 738.086,809.342C738.086,817.14 739.435,824.287 742.134,830.785C744.832,837.283 748.471,842.839 753.05,847.453C757.629,852.066 762.973,855.64 769.081,858.174C775.189,860.709 781.687,861.976 788.575,861.976C798.192,861.976 806.249,860.254 812.747,856.81C819.245,853.366 825.028,848.785 830.097,843.067L820.74,834.684C816.581,838.973 812,842.417 806.996,845.016C801.993,847.615 795.982,848.915 788.965,848.915C784.546,848.915 780.322,848.167 776.294,846.673C772.265,845.178 768.626,842.969 765.377,840.045C762.128,837.121 759.464,833.547 757.385,829.323C755.305,825.1 754.006,820.259 753.486,814.8ZM753.486,803.689C754.002,798.75 755.164,794.202 756.973,790.043C758.783,785.885 761.108,782.278 763.95,779.224C766.792,776.17 770.085,773.766 773.831,772.011C777.576,770.257 781.645,769.38 786.037,769.38C791.075,769.38 795.5,770.322 799.312,772.206C803.123,774.091 806.353,776.592 809.001,779.711C811.649,782.83 813.715,786.469 815.201,790.628C816.686,794.787 817.623,799.14 818.01,803.689L753.486,803.689Z" style="fill:rgb(240,240,240);fill-rule:nonzero;"/>
                    <path d="M987.412,831.37L987.412,830.98C987.412,826.432 986.47,822.598 984.586,819.479C982.701,816.36 980.2,813.696 977.081,811.486C973.962,809.277 970.485,807.458 966.651,806.028C962.818,804.599 958.951,803.299 955.053,802.129C951.674,801.09 948.425,800.05 945.306,799.01C942.187,797.971 939.425,796.801 937.021,795.501C934.616,794.202 932.7,792.675 931.27,790.92C929.84,789.166 929.126,787.119 929.126,784.78L929.126,784.39C929.126,780.231 930.88,776.755 934.389,773.961C937.898,771.167 942.641,769.77 948.62,769.77C953.558,769.77 958.594,770.647 963.727,772.401C968.861,774.156 973.767,776.527 978.445,779.517L985.268,768.21C980.07,764.831 974.286,762.134 967.918,760.12C961.55,758.106 955.247,757.099 949.009,757.099C944.071,757.099 939.49,757.781 935.266,759.145C931.043,760.51 927.404,762.459 924.35,764.994C921.296,767.528 918.924,770.582 917.234,774.156C915.545,777.73 914.7,781.661 914.7,785.949L914.7,786.339C914.7,791.018 915.707,794.917 917.722,798.036C919.736,801.155 922.335,803.754 925.519,805.833C928.703,807.913 932.277,809.635 936.241,810.999C940.205,812.364 944.136,813.631 948.035,814.8C951.284,815.71 954.435,816.685 957.489,817.725C960.543,818.764 963.24,819.966 965.579,821.331C967.918,822.695 969.77,824.287 971.135,826.107C972.5,827.926 973.182,830.071 973.182,832.54L973.182,832.93C973.182,837.868 971.232,841.767 967.334,844.626C963.435,847.485 958.431,848.915 952.323,848.915C946.345,848.915 940.4,847.81 934.486,845.601C928.573,843.391 922.888,840.207 917.429,836.049L909.827,846.77C915.545,851.319 922.108,854.925 929.516,857.59C936.923,860.254 944.266,861.586 951.544,861.586C956.612,861.586 961.323,860.903 965.677,859.539C970.03,858.174 973.799,856.192 976.983,853.593C980.167,850.994 982.701,847.843 984.586,844.139C986.47,840.435 987.412,836.179 987.412,831.37Z" style="fill:rgb(240,240,240);fill-rule:nonzero;"/>
                    <path d="M1095.21,776.787C1092.48,771.069 1088.46,766.293 1083.13,762.459C1077.8,758.626 1071.04,756.709 1062.85,756.709C1058.57,756.709 1054.8,757.228 1051.55,758.268C1048.3,759.308 1045.37,760.705 1042.78,762.459C1040.18,764.214 1037.87,766.261 1035.86,768.6C1033.84,770.939 1031.99,773.343 1030.3,775.813L1030.3,758.853L1015.29,758.853L1015.29,859.636L1030.3,859.636L1030.3,802.129C1030.3,797.451 1031.01,793.195 1032.44,789.361C1033.87,785.527 1035.86,782.181 1038.39,779.322C1040.92,776.462 1043.88,774.253 1047.26,772.694C1050.64,771.134 1054.34,770.354 1058.37,770.354C1066.43,770.354 1072.76,772.986 1077.38,778.249C1081.99,783.513 1084.3,790.888 1084.3,800.375L1084.3,859.636L1099.11,859.636L1099.11,801.545C1099.11,796.606 1099.86,792.188 1101.35,788.289C1102.85,784.39 1104.86,781.109 1107.4,778.444C1109.93,775.78 1112.89,773.766 1116.27,772.401C1119.65,771.037 1123.22,770.354 1126.99,770.354C1135.18,770.354 1141.58,772.986 1146.19,778.249C1150.8,783.513 1153.11,791.018 1153.11,800.765L1153.11,859.636L1168.12,859.636L1168.12,797.256C1168.12,784.65 1164.81,774.741 1158.18,767.528C1151.55,760.315 1142.39,756.709 1130.69,756.709C1126.27,756.709 1122.28,757.228 1118.7,758.268C1115.13,759.308 1111.91,760.737 1109.05,762.557C1106.19,764.376 1103.63,766.521 1101.35,768.99C1099.08,771.459 1097.03,774.058 1095.21,776.787Z" style="fill:rgb(240,240,240);fill-rule:nonzero;"/>
                    <path d="M1272.22,816.555C1272.22,821.233 1271.44,825.522 1269.88,829.421C1268.32,833.32 1266.21,836.666 1263.54,839.46C1260.88,842.254 1257.69,844.399 1253.99,845.893C1250.29,847.388 1246.29,848.135 1242,848.135C1233.04,848.135 1226.15,845.406 1221.34,839.948C1216.53,834.489 1214.13,827.082 1214.13,817.725L1214.13,758.853L1199.12,758.853L1199.12,821.428C1199.12,827.406 1199.99,832.865 1201.75,837.803C1203.5,842.742 1206.04,846.998 1209.35,850.572C1212.66,854.146 1216.69,856.907 1221.44,858.857C1226.18,860.806 1231.61,861.781 1237.71,861.781C1246.42,861.781 1253.5,859.864 1258.96,856.03C1264.42,852.196 1268.84,847.55 1272.22,842.092L1272.22,859.636L1287.03,859.636L1287.03,758.853L1272.22,758.853L1272.22,816.555Z" style="fill:rgb(240,240,240);fill-rule:nonzero;"/>
                    <path d="M1341.03,772.109L1373,772.109L1373,758.853L1341.03,758.853L1341.03,728.443L1326.02,728.443L1326.02,758.853L1311.99,758.853L1311.99,772.109L1326.02,772.109L1326.02,832.93C1326.02,837.998 1326.74,842.352 1328.16,845.991C1329.6,849.63 1331.58,852.586 1334.11,854.86C1336.64,857.135 1339.67,858.792 1343.18,859.831C1346.68,860.871 1350.45,861.391 1354.48,861.391C1358.12,861.391 1361.4,861.033 1364.33,860.319C1367.25,859.604 1370.01,858.532 1372.61,857.102L1372.61,844.236C1370.01,845.536 1367.58,846.446 1365.3,846.965C1363.03,847.485 1360.59,847.745 1357.99,847.745C1352.92,847.745 1348.83,846.51 1345.71,844.041C1342.59,841.572 1341.03,837.218 1341.03,830.98L1341.03,772.109Z" style="fill:rgb(240,240,240);fill-rule:nonzero;"/>
                    <rect x="1459.36" y="717.331" width="15.01" height="142.305" style="fill:rgb(240,240,240);fill-rule:nonzero;"/>
                    <path d="M1578.47,831.37L1578.47,830.98C1578.47,826.432 1577.53,822.598 1575.64,819.479C1573.76,816.36 1571.25,813.696 1568.13,811.486C1565.02,809.277 1561.54,807.458 1557.71,806.028C1553.87,804.599 1550.01,803.299 1546.11,802.129C1542.73,801.09 1539.48,800.05 1536.36,799.01C1533.24,797.971 1530.48,796.801 1528.08,795.501C1525.67,794.202 1523.75,792.675 1522.33,790.92C1520.89,789.166 1520.18,787.119 1520.18,784.78L1520.18,784.39C1520.18,780.231 1521.93,776.755 1525.44,773.961C1528.95,771.167 1533.7,769.77 1539.67,769.77C1544.61,769.77 1549.65,770.647 1554.78,772.401C1559.91,774.156 1564.82,776.527 1569.5,779.517L1576.32,768.21C1571.12,764.831 1565.34,762.134 1558.97,760.12C1552.61,758.106 1546.3,757.099 1540.06,757.099C1535.12,757.099 1530.54,757.781 1526.32,759.145C1522.1,760.51 1518.46,762.459 1515.4,764.994C1512.35,767.528 1509.98,770.582 1508.29,774.156C1506.6,777.73 1505.76,781.661 1505.76,785.949L1505.76,786.339C1505.76,791.018 1506.76,794.917 1508.78,798.036C1510.79,801.155 1513.39,803.754 1516.57,805.833C1519.76,807.913 1523.33,809.635 1527.3,810.999C1531.26,812.364 1535.19,813.631 1539.09,814.8C1542.34,815.71 1545.49,816.685 1548.54,817.725C1551.6,818.764 1554.29,819.966 1556.63,821.331C1558.97,822.695 1560.83,824.287 1562.19,826.107C1563.55,827.926 1564.24,830.071 1564.24,832.54L1564.24,832.93C1564.24,837.868 1562.29,841.767 1558.39,844.626C1554.49,847.485 1549.49,848.915 1543.38,848.915C1537.4,848.915 1531.45,847.81 1525.54,845.601C1519.63,843.391 1513.94,840.207 1508.48,836.049L1500.88,846.77C1506.6,851.319 1513.16,854.925 1520.57,857.59C1527.98,860.254 1535.32,861.586 1542.6,861.586C1547.67,861.586 1552.38,860.903 1556.73,859.539C1561.09,858.174 1564.85,856.192 1568.04,853.593C1571.22,850.994 1573.76,847.843 1575.64,844.139C1577.53,840.435 1578.47,836.179 1578.47,831.37Z" style="fill:rgb(240,240,240);fill-rule:nonzero;"/>
                </g>
                <g transform="matrix(2.05883,0,0,2.05883,-306.591,-959.602)">
                    <g transform="matrix(18,0,0,18,974.931,859.636)">
                    </g>
                    <text x="630.479px" y="859.636px" style="font-family:'Arial-ItalicMT', 'Arial', sans-serif;font-style:italic;font-size:18px;fill:rgb(240,240,240);">A<tspan x="641.817px 646.818px " y="859.636px 859.636px "> P</tspan>ython toolkit to simplify seismic analysis</text>
                </g>
                <g transform="matrix(2.08557,0,0,2.08557,-549.485,-982.58)">
                    <g transform="matrix(11.5077,0,0,11.5077,686.77,859.636)">
                    </g>
                    <text x="630.479px" y="859.636px" style="font-family:'Arial-ItalicMT', 'Arial', sans-serif;font-style:italic;font-size:11.508px;fill:rgb(240,240,240);">version 0.2</text>
                </g>
                <g transform="matrix(1.02157,0,-0.370485,0.703883,1165.82,159.175)">
                    <rect x="648.609" y="717.331" width="15.01" height="142.305" style="fill:rgb(77,171,207);fill-rule:nonzero;"/>
                </g>
                <g transform="matrix(1.02157,0,-0.540581,1.02705,746.693,-72.641)">
                    <rect x="648.609" y="717.331" width="15.01" height="142.305" style="fill:rgb(77,171,207);fill-rule:nonzero;"/>
                </g>
            </g>
        </g>
    </g>
</svg>
