<?xml version="1.0" encoding="UTF-8" standalone="no"?>
<!DOCTYPE svg PUBLIC "-//W3C//DTD SVG 1.1//EN" "http://www.w3.org/Graphics/SVG/1.1/DTD/svg11.dtd">
<svg width="100%" height="100%" viewBox="0 0 269 268" version="1.1" xmlns="http://www.w3.org/2000/svg" xmlns:xlink="http://www.w3.org/1999/xlink" xml:space="preserve" xmlns:serif="http://www.serif.com/" style="fill-rule:evenodd;clip-rule:evenodd;stroke-linejoin:round;stroke-miterlimit:2;">
    <g transform="matrix(1,0,0,1,-1475,-687)">
        <g transform="matrix(1,0,0,1,327.66,687.059)">
            <g id="icon" transform="matrix(1.14138,0,0,1.14138,686.703,-786.068)">
                <g id="circle" transform="matrix(0.87613,0,0,0.87613,-888.714,688.698)">
                    <circle cx="1609.41" cy="133.83" r="133.83" style="fill:rgb(240,240,240);"/>
                </g>
                <g transform="matrix(1,0,0,1,-188.897,-3.39183)">
                    <path d="M716.447,831.37L716.447,830.98C716.447,826.432 715.505,822.598 713.621,819.479C711.736,816.36 709.235,813.696 706.116,811.486C702.997,809.277 699.52,807.458 695.686,806.028C691.853,804.599 687.986,803.299 684.088,802.129C680.709,801.09 677.46,800.05 674.341,799.01C671.222,797.971 668.46,796.801 666.056,795.501C663.651,794.202 661.735,792.675 660.305,790.92C658.875,789.166 658.161,787.119 658.161,784.78L658.161,784.39C658.161,780.231 659.915,776.755 663.424,773.961C666.933,771.167 671.676,769.77 677.655,769.77C682.593,769.77 687.629,770.647 692.762,772.401C697.896,774.156 702.802,776.527 707.48,779.517L714.303,768.21C709.105,764.831 703.321,762.134 696.953,760.12C690.585,758.106 684.282,757.099 678.044,757.099C673.106,757.099 668.525,757.781 664.301,759.145C660.078,760.51 656.439,762.459 653.385,764.994C650.331,767.528 647.959,770.582 646.269,774.156C644.58,777.73 643.735,781.661 643.735,785.949L643.735,786.339C643.735,791.018 644.742,794.917 646.757,798.036C648.771,801.155 651.37,803.754 654.554,805.833C657.738,807.913 661.312,809.635 665.276,810.999C669.24,812.364 673.171,813.631 677.07,814.8C680.319,815.71 683.47,816.685 686.524,817.725C689.578,818.764 692.275,819.966 694.614,821.331C696.953,822.695 698.805,824.287 700.17,826.107C701.535,827.926 702.217,830.071 702.217,832.54L702.217,832.93C702.217,837.868 700.267,841.767 696.369,844.626C692.47,847.485 687.466,848.915 681.358,848.915C675.38,848.915 669.435,847.81 663.521,845.601C657.608,843.391 651.923,840.207 646.464,836.049L638.862,846.77C644.58,851.319 651.143,854.925 658.551,857.59C665.958,860.254 673.301,861.586 680.579,861.586C685.647,861.586 690.358,860.903 694.712,859.539C699.065,858.174 702.834,856.192 706.018,853.593C709.202,850.994 711.736,847.843 713.621,844.139C715.505,840.435 716.447,836.179 716.447,831.37Z" style="fill:rgb(15,15,15);fill-rule:nonzero;"/>
                </g>
                <g transform="matrix(1.02157,0,-0.370485,0.703883,185.8,251.161)">
                    <rect x="648.609" y="717.331" width="15.01" height="142.305" style="fill:rgb(77,171,207);fill-rule:nonzero;"/>
                </g>
            </g>
        </g>
    </g>
</svg>
